<svg width="18" height="18" viewBox="0 0 18 18" fill="none" xmlns="http://www.w3.org/2000/svg">
<path d="M9.11998 8.15262C9.04498 8.14512 8.95498 8.14512 8.87248 8.15262C7.08748 8.09262 5.66998 6.63012 5.66998 4.83012C5.66998 2.99262 7.15498 1.50012 8.99998 1.50012C10.8375 1.50012 12.33 2.99262 12.33 4.83012C12.3225 6.63012 10.905 8.09262 9.11998 8.15262Z" stroke="#E7513B" stroke-width="1.5" stroke-linecap="round" stroke-linejoin="round"/>
<path d="M5.37001 10.9201C3.55501 12.1351 3.55501 14.1151 5.37001 15.3226C7.43251 16.7026 10.815 16.7026 12.8775 15.3226C14.6925 14.1076 14.6925 12.1276 12.8775 10.9201C10.8225 9.54762 7.44001 9.54762 5.37001 10.9201Z" stroke="#E7513B" stroke-width="1.5" stroke-linecap="round" stroke-linejoin="round"/>
</svg>
