<svg width="18" height="18" viewBox="0 0 18 18" fill="none" xmlns="http://www.w3.org/2000/svg">
<path d="M1.5 11.25H13.875C15.3225 11.25 16.5 12.4275 16.5 13.875C16.5 15.3225 15.3225 16.5 13.875 16.5C12.4275 16.5 11.25 15.3225 11.25 13.875V13.5" stroke="#E7513B" stroke-width="1.5" stroke-miterlimit="10" stroke-linecap="round" stroke-linejoin="round"/>
<path d="M1.5 9H13.875C15.315 9 16.5 7.8225 16.5 6.375C16.5 4.935 15.315 3.75 13.875 3.75C12.435 3.75 11.25 4.9275 11.25 6.375V6.75" stroke="#E7513B" stroke-width="1.5" stroke-miterlimit="10" stroke-linecap="round" stroke-linejoin="round"/>
<path d="M1.5 6.75003H6.9825C8.1 6.75003 9 5.84253 9 4.73253C9 3.61503 8.0925 2.71503 6.9825 2.71503C5.865 2.71503 4.965 3.62253 4.965 4.73253V5.01753" stroke="#E7513B" stroke-width="1.5" stroke-miterlimit="10" stroke-linecap="round" stroke-linejoin="round"/>
</svg>
